<?xml version="1.0" encoding="UTF-8"?>
<svg viewBox="0 0 1238.5056 360.21936" xmlns="http://www.w3.org/2000/svg">
 <defs>
  <linearGradient id="q" x1="329.15" x2="227.91" gradientUnits="userSpaceOnUse">
   <stop offset="0"/>
   <stop stop-color="#fff" offset=".4045"/>
   <stop offset="1"/>
  </linearGradient>
  <linearGradient id="r" x1="915.27" x2="1016.5" gradientUnits="userSpaceOnUse">
   <stop offset="0"/>
   <stop stop-color="#fff" offset=".4045"/>
   <stop offset="1"/>
  </linearGradient>
  <linearGradient id="s" x2="1" gradientTransform="matrix(1.5608 -291.88 -86.868 -.46455 626.74 376.1)" gradientUnits="userSpaceOnUse">
   <stop stop-color="#f5f6fa" offset="0"/>
   <stop stop-color="#d5dae0" offset=".2842"/>
   <stop stop-color="#fdfdfd" offset=".4199"/>
   <stop stop-color="#9fa0a5" offset=".6592"/>
   <stop stop-color="#eef3f5" offset=".8691"/>
   <stop stop-color="#eef3f5" offset="1"/>
  </linearGradient>
  <linearGradient id="t" x1="350.61" x2="332.77" gradientUnits="userSpaceOnUse">
   <stop stop-color="#f5f6fa" offset="0"/>
   <stop stop-color="#d5dae0" offset=".2842"/>
   <stop stop-color="#fdfdfd" offset=".4199"/>
   <stop stop-color="#9fa0a5" offset=".6592"/>
   <stop stop-color="#eef3f5" offset=".8691"/>
   <stop stop-color="#eef3f5" offset="1"/>
  </linearGradient>
  <linearGradient id="u" x1="511.86" x2="359.74" gradientUnits="userSpaceOnUse">
   <stop stop-color="#f5f6fa" offset="0"/>
   <stop stop-color="#d5dae0" offset=".2842"/>
   <stop stop-color="#fdfdfd" offset=".4199"/>
   <stop stop-color="#9fa0a5" offset=".6592"/>
   <stop stop-color="#eef3f5" offset=".8691"/>
   <stop stop-color="#eef3f5" offset="1"/>
  </linearGradient>
  <linearGradient id="v" x1="618.57" x2="377.26" gradientUnits="userSpaceOnUse">
   <stop stop-color="#f5f6fa" offset="0"/>
   <stop stop-color="#d5dae0" offset=".2842"/>
   <stop stop-color="#fdfdfd" offset=".4199"/>
   <stop stop-color="#9fa0a5" offset=".6592"/>
   <stop stop-color="#eef3f5" offset=".8691"/>
   <stop stop-color="#eef3f5" offset="1"/>
  </linearGradient>
  <linearGradient id="w" x2="1" gradientTransform="matrix(0 254.29 73.318 0 585.11 53.731)" gradientUnits="userSpaceOnUse">
   <stop stop-color="#f5f6fa" offset="0"/>
   <stop stop-color="#d5dae0" offset=".2842"/>
   <stop stop-color="#fdfdfd" offset=".4199"/>
   <stop stop-color="#9fa0a5" offset=".6592"/>
   <stop stop-color="#eef3f5" offset=".8691"/>
   <stop stop-color="#eef3f5" offset="1"/>
  </linearGradient>
  <radialGradient id="a" cx="75.761" cy="302.9" r="-66.598" gradientUnits="userSpaceOnUse">
   <stop stop-color="#f5f6fa" offset="0"/>
   <stop stop-color="#d5dae0" offset=".2842"/>
   <stop stop-color="#fdfdfd" offset=".4199"/>
   <stop stop-color="#9fa0a5" offset=".6592"/>
   <stop stop-color="#eef3f5" offset=".8691"/>
   <stop stop-color="#eef3f5" offset="1"/>
  </radialGradient>
  <radialGradient id="b" cx="0" cy="0" r="1" gradientTransform="matrix(-4.6521 -15.792 -15.792 4.6521 280.24 271.14)" gradientUnits="userSpaceOnUse">
   <stop stop-color="#fff" offset="0"/>
   <stop offset="1"/>
  </radialGradient>
  <radialGradient id="c" cx="0" cy="0" r="1" gradientTransform="matrix(-2.4931 -8.4632 -8.4631 2.4932 283.5 284.86)" gradientUnits="userSpaceOnUse">
   <stop stop-color="#fff" offset="0"/>
   <stop offset="1"/>
  </radialGradient>
  <radialGradient id="d" cx="0" cy="0" r="1" gradientTransform="matrix(-2.4931 -8.4631 -8.4631 2.4932 295.94 268.55)" gradientUnits="userSpaceOnUse">
   <stop stop-color="#fff" offset="0"/>
   <stop offset="1"/>
  </radialGradient>
  <radialGradient id="e" cx="0" cy="0" r="1" gradientTransform="matrix(-2.4931 -8.4631 -8.4631 2.4932 283.46 251.53)" gradientUnits="userSpaceOnUse">
   <stop stop-color="#fff" offset="0"/>
   <stop offset="1"/>
  </radialGradient>
  <radialGradient id="f" cx="0" cy="0" r="1" gradientTransform="matrix(-2.4931 -8.4632 -8.4631 2.4932 264.8 258.46)" gradientUnits="userSpaceOnUse">
   <stop stop-color="#fff" offset="0"/>
   <stop offset="1"/>
  </radialGradient>
  <radialGradient id="g" cx="0" cy="0" r="1" gradientTransform="matrix(-2.4933 -8.4633 -8.4632 2.4931 263.85 278.15)" gradientUnits="userSpaceOnUse">
   <stop stop-color="#fff" offset="0"/>
   <stop offset="1"/>
  </radialGradient>
  <radialGradient id="h" cx="0" cy="0" r="1" gradientTransform="matrix(-153.63 0 0 153.63 355.35 263.07)" gradientUnits="userSpaceOnUse">
   <stop stop-color="#f5f6fa" offset="0"/>
   <stop stop-color="#d5dae0" offset=".2842"/>
   <stop stop-color="#fdfdfd" offset=".4199"/>
   <stop stop-color="#9fa0a5" offset=".6592"/>
   <stop stop-color="#eef3f5" offset=".8691"/>
   <stop stop-color="#eef3f5" offset="1"/>
  </radialGradient>
  <radialGradient id="i" cx="0" cy="0" r="1" gradientTransform="matrix(4.6521 15.792 15.792 -4.6521 964.18 257.33)" gradientUnits="userSpaceOnUse">
   <stop stop-color="#fff" offset="0"/>
   <stop offset="1"/>
  </radialGradient>
  <radialGradient id="j" cx="0" cy="0" r="1" gradientTransform="matrix(2.4931 8.4632 8.4631 -2.4932 960.92 243.61)" gradientUnits="userSpaceOnUse">
   <stop stop-color="#fff" offset="0"/>
   <stop offset="1"/>
  </radialGradient>
  <radialGradient id="k" cx="0" cy="0" r="1" gradientTransform="matrix(2.4931 8.4631 8.4631 -2.4932 948.47 259.92)" gradientUnits="userSpaceOnUse">
   <stop stop-color="#fff" offset="0"/>
   <stop offset="1"/>
  </radialGradient>
  <radialGradient id="l" cx="0" cy="0" r="1" gradientTransform="matrix(2.4931 8.4631 8.4631 -2.4932 960.96 276.94)" gradientUnits="userSpaceOnUse">
   <stop stop-color="#fff" offset="0"/>
   <stop offset="1"/>
  </radialGradient>
  <radialGradient id="m" cx="0" cy="0" r="1" gradientTransform="matrix(2.4931 8.4632 8.4631 -2.4932 979.61 270)" gradientUnits="userSpaceOnUse">
   <stop stop-color="#fff" offset="0"/>
   <stop offset="1"/>
  </radialGradient>
  <radialGradient id="n" cx="0" cy="0" r="1" gradientTransform="matrix(2.4933 8.4633 8.4632 -2.4931 980.57 250.32)" gradientUnits="userSpaceOnUse">
   <stop stop-color="#fff" offset="0"/>
   <stop offset="1"/>
  </radialGradient>
  <radialGradient id="o" cx="0" cy="0" r="1" gradientTransform="matrix(153.63 0 0 -153.63 889.07 265.4)" gradientUnits="userSpaceOnUse">
   <stop stop-color="#f5f6fa" offset="0"/>
   <stop stop-color="#d5dae0" offset=".2842"/>
   <stop stop-color="#fdfdfd" offset=".4199"/>
   <stop stop-color="#9fa0a5" offset=".6592"/>
   <stop stop-color="#eef3f5" offset=".8691"/>
   <stop stop-color="#eef3f5" offset="1"/>
  </radialGradient>
  <radialGradient id="p" cx="420.36" cy="170.74" r="-64.415" gradientUnits="userSpaceOnUse">
   <stop stop-color="#f5f6fa" offset="0"/>
   <stop stop-color="#d5dae0" offset=".2842"/>
   <stop stop-color="#fdfdfd" offset=".4199"/>
   <stop stop-color="#9fa0a5" offset=".6592"/>
   <stop stop-color="#eef3f5" offset=".8691"/>
   <stop stop-color="#eef3f5" offset="1"/>
  </radialGradient>
 </defs>
 <g transform="translate(-.01718,-.01392)">
  <path d="m26.664 276.07h-23.542v12.082l23.542 0.4175v-12.5z" fill="none" stroke="#000" stroke-linejoin="round" stroke-miterlimit="10" stroke-width=".0625"/>
  <path d="m1225.4 255.4c-0.4163-6.6675-0.8325-13.334-1.4575-18.681s-1.4588-9.375-3.6813-12.846-5.8325-6.39-10.764-9.7925-11.18-7.2912-19.236-11.666c-8.055-4.375-17.916-9.2362-26.111-12.916-8.1938-3.6812-14.721-6.1812-21.094-8.8825s-12.586-5.6038-18.801-8.5062l20.312 42.5 27.082 41.25 47.918-6.25 5.8325 5.7912z" fill="#d0d4df" stroke="#000" stroke-linejoin="round" stroke-miterlimit="10" stroke-width=".0625"/>
  <path d="m391.62 321.49-232-5-1-81 44-68 61-20 88 12 71 50-9 61-22 51" fill="#32353e"/>
  <path d="m1074.6 325.49-226 1-3-86 67-72 110-4 50 29 15 85-13 47" fill="#32353e"/>
  <path d="m31.039 287.95-27.924 0.04 6e-3 13.71 21.459-0.4175 6.4588-13.332z" fill="#2b2a2f" stroke="#000" stroke-linejoin="round" stroke-miterlimit="10" stroke-width=".0625"/>
  <path d="m1078.8 142.07c-14.028-3.055-28.055-6.1112-42.916-8.75s-30.556-4.8612-45.278-6.5975-28.472-2.9862-43.334-4.1662-30.834-2.2912-41.389-2.9862c-10.556-0.695-15.695-0.9725-19.236-1.25s-5.4862-0.555-7.0838-1.3188c-1.5975-0.765-3.75-1.2088-4.7225-1.7638-0.97125-0.555-1.77-0.33-6.145 0.15625s-11.424 0.42625-20.799 1.19-20.07 1.4588-28.402 1.875-14.306 0.55625-17.848 0.3475-4.6525-0.76375-11.875-5.695-20.556-14.236-37.152-25.346-36.459-24.029-53.542-35.209-31.389-20.625-38.889-25.902-8.1938-6.3888-10.625-7.57-6.5975-2.43-15.416-4.4438c-8.82-2.015-22.291-4.7925-37.291-6.5975-15-1.8062-31.529-2.6388-47.431-2.6388s-31.18 0.8325-42.778 1.5275-19.514 1.25-31.181 2.7088-27.082 3.8188-45.139 6.875-38.75 6.805-50.208 9.0275-13.681 2.9162-15.209 3.68-2.3612 1.5975-3.82 2.6388-3.5412 2.2925-8.2638 4.0975-12.083 4.1662-21.18 6.8062-19.931 5.555-28.959 7.985-16.25 4.375-36.18 10.486-52.57 16.39-70.556 22.154-21.319 7.0138-23.332 7.5-2.7088 0.2075-3.2638-0.07l-1.39-0.76375c-0.41625-0.20875-0.8325-0.3475-1.6662-0.20875s-2.0838 0.55625-3.75 0.76375-3.75 0.20875-5.2088-0.0688-2.2912-0.83375-3.8188-0.625-3.75 1.18-6.8062 2.43c-3.055 1.25-6.9437 2.7788-12.291 4.5138-5.3475 1.7362-12.152 3.6812-20.416 5.765s-17.986 4.305-24.029 5.6938-8.4025 1.9438-13.819 4.305-13.889 6.5288-20.972 12.5-12.778 13.75-18.402 21.181-11.18 14.514-15.416 20.764-7.1538 11.666-10.139 16.806-6.0425 10-7.9862 13.75c-1.945 3.75-2.7788 6.3888-3.0562 9.7912s0 7.5688 0.625 11.875c0.625 4.305 1.5975 8.75 2.57 12.708s1.9438 7.4312 2.7775 10.904 1.5275 6.9438 2.0138 10.694 0.76375 7.7775 1.25 11.945 1.1812 8.4725 2.1525 11.944 2.2225 6.1112 4.1675 7.8475c1.9438 1.7362 4.5825 2.57 7.3612 2.8475s5.6938 0 23.402 0.76375 50.208 2.57 67.153 3.68 18.334 1.5288 19.514 2.0838 2.1525 1.25 3.2638 2.6388 2.3612 3.4725 3.0562 5.625 0.8325 4.375 0.48625 6.3888c-0.3475 2.015-1.1812 3.82-2.015 5.2788s-1.6662 2.5688-2.5 3.68h30.834l7.5-10c-0.41625-6.25-0.83375-12.5-0.9025-19.652s0.20875-15.209 0.9725-22.918 2.0138-15.069 3.8888-21.735 4.375-12.64 7.9862-19.236 8.3325-13.82 13.611-20.07 11.11-11.528 17.708-16.111 13.959-8.4712 22.014-11.736c8.0562-3.2638 16.806-5.9025 26.111-7.2212 9.3062-1.32 19.168-1.32 28.542-0.27875s18.264 3.125 26.18 5.9038 14.861 6.25 21.736 10.971c6.875 4.7225 13.68 10.695 19.098 16.459s9.4438 11.32 12.778 17.084 5.9725 11.736 7.9862 17.152 3.4025 10.278 4.2362 14.098 1.1112 6.5962 1.3888 9.375c11.944 0.97125 23.889 1.9438 36.528 2.8462s25.972 1.7362 37.361 2.9862 20.834 2.9175 30.139 4.8612c9.305 1.945 18.472 4.1675 27.778 6.1112 9.3062 1.945 18.75 3.6112 31.806 5s29.721 2.5 73.332 3.0562 114.17 0.555 157.5 0.69375 59.445 0.4175 75.556 0.695c-0.1675-4.0562-0.33375-8.1112 0-13.056 0.3325-4.9438 1.1662-10.778 2.5825-16.611s3.4175-11.666 5.5-16.75 4.25-9.4162 7.6675-14.75 8.0825-11.666 13.332-17.416 11.084-10.916 16.168-14.834 9.4162-6.5825 14.416-9 10.666-4.5825 18.5-6.5 17.834-3.5825 28.084-3.9162 20.75 0.66625 30 2.6662 17.25 5 24.5 8.4175 13.75 7.25 19.332 11.75 10.25 9.6662 14.5 15.416 8.0837 12.084 11.334 19.166 5.9163 14.918 7.8338 22.834 3.0825 15.916 3.6662 23.084 0.5838 13.5 0.1663 20.082-1.25 13.418-2.75 20.168-3.6663 13.416-5.8325 20.082c11.166-1 22.332-2 28.5-2.8325s7.3325-1.5 9-1.8338 3.8325-0.33375 16.166-1.25 34.834-2.75 49.916-4.0838 22.75-2.1662 28.334-2.5 9.0838-0.16625 12.5-0.41625 6.75-0.91625 9.6663-2.5 5.4175-4.0838 6.5-5.4162 0.75-1.5-0.1663-3-2.4162-4.3338-3.1662-6.0838-0.75-2.4162-0.25-7.9162 1.5-15.834 2-24.584 0.5-15.916 0.25-21.834-0.75-10.582-1.9175-14.082-3-5.8338-5.4163-8.0838-5.4162-4.4162-8.6662-6.0838-6.75-2.8325-11.668-4.5825-11.25-4.0838-18.082-7.0838-14.168-6.6662-22.168-11.166-16.666-9.8338-24.666-15.25-15.334-10.918-22-16.084-12.666-10-17.5-14.166-8.5-7.6675-10.722-9.9862-3-3.4588-3.7775-4.5975zm-804.17-43.75c-3.3338-1.1112-6.6675-2.2225-8.6112-3.4725-1.945-1.25-2.5-2.6388-2.5-4.0275s0.555-2.7775 1.805-4.5838c1.25-1.805 3.195-4.0275 6.6675-6.6662s8.4712-5.6938 18.611-10c10.139-4.305 25.416-9.8612 48.61-16.805 23.195-6.945 54.306-15.279 80.556-21.111s47.639-9.1675 67.778-11.389 39.028-3.3338 55.972-3.6112 31.944 0.2775 43.889 1.25 20.834 2.3612 29.166 4.5825 16.111 5.2788 26.529 10.834c10.416 5.555 23.471 13.611 38.61 23.611s32.361 21.945 47.64 32.639c15.278 10.695 28.61 20.139 41.944 29.584-11.944 0-23.889 0-57.778-0.83375s-89.722-2.5-137.92-3.4725c-48.195-0.9725-88.75-1.25-125-2.2225s-68.195-2.6388-93.89-4.305c-25.694-1.6662-45.139-3.3338-57.778-5s-18.472-3.3338-24.305-5" fill="url(#w)"/>
  <path d="m1078.8 142.07c-14.028-3.055-28.055-6.1112-42.916-8.75s-30.556-4.8612-45.278-6.5975-28.472-2.9862-43.334-4.1662-30.834-2.2912-41.389-2.9862c-10.556-0.695-15.695-0.9725-19.236-1.25s-5.4862-0.555-7.0838-1.3188c-1.5975-0.765-3.75-1.2088-4.7225-1.7638-0.97125-0.555-1.77-0.33-6.145 0.15625s-11.424 0.42625-20.799 1.19-20.07 1.4588-28.402 1.875-14.306 0.55625-17.848 0.3475-4.6525-0.76375-11.875-5.695-20.556-14.236-37.152-25.346-36.459-24.029-53.542-35.209-31.389-20.625-38.889-25.902-8.1938-6.3888-10.625-7.57-6.5975-2.43-15.416-4.4438c-8.82-2.015-22.291-4.7925-37.291-6.5975-15-1.8062-31.529-2.6388-47.431-2.6388s-31.18 0.8325-42.778 1.5275-19.514 1.25-31.181 2.7088-27.082 3.8188-45.139 6.875-38.75 6.805-50.208 9.0275-13.681 2.9162-15.209 3.68-2.3612 1.5975-3.82 2.6388-3.5412 2.2925-8.2638 4.0975-12.083 4.1662-21.18 6.8062-19.931 5.555-28.959 7.985-16.25 4.375-36.18 10.486-52.57 16.39-70.556 22.154-21.319 7.0138-23.332 7.5-2.7088 0.2075-3.2638-0.07l-1.39-0.76375c-0.41625-0.20875-0.8325-0.3475-1.6662-0.20875s-2.0838 0.55625-3.75 0.76375-3.75 0.20875-5.2088-0.0688-2.2912-0.83375-3.8188-0.625-3.75 1.18-6.8062 2.43c-3.055 1.25-6.9437 2.7788-12.291 4.5138-5.3475 1.7362-12.152 3.6812-20.416 5.765s-17.986 4.305-24.029 5.6938-8.4025 1.9438-13.819 4.305-13.889 6.5288-20.972 12.5-12.778 13.75-18.402 21.181-11.18 14.514-15.416 20.764-7.1538 11.666-10.139 16.806-6.0425 10-7.9862 13.75c-1.945 3.75-2.7788 6.3888-3.0562 9.7912s0 7.5688 0.625 11.875c0.625 4.305 1.5975 8.75 2.57 12.708s1.9438 7.4312 2.7775 10.904 1.5275 6.9438 2.0138 10.694 0.76375 7.7775 1.25 11.945 1.1812 8.4725 2.1525 11.944 2.2225 6.1112 4.1675 7.8475c1.9438 1.7362 4.5825 2.57 7.3612 2.8475s5.6938 0 23.402 0.76375 50.208 2.57 67.153 3.68 18.334 1.5288 19.514 2.0838 2.1525 1.25 3.2638 2.6388 2.3612 3.4725 3.0562 5.625 0.8325 4.375 0.48625 6.3888c-0.3475 2.015-1.1812 3.82-2.015 5.2788s-1.6662 2.5688-2.5 3.68h30.834l7.5-10c-0.41625-6.25-0.83375-12.5-0.9025-19.652s0.20875-15.209 0.9725-22.918 2.0138-15.069 3.8888-21.735 4.375-12.64 7.9862-19.236 8.3325-13.82 13.611-20.07 11.11-11.528 17.708-16.111 13.959-8.4712 22.014-11.736c8.0562-3.2638 16.806-5.9025 26.111-7.2212 9.3062-1.32 19.168-1.32 28.542-0.27875s18.264 3.125 26.18 5.9038 14.861 6.25 21.736 10.971c6.875 4.7225 13.68 10.695 19.098 16.459s9.4438 11.32 12.778 17.084 5.9725 11.736 7.9862 17.152 3.4025 10.278 4.2362 14.098 1.1112 6.5962 1.3888 9.375c11.944 0.97125 23.889 1.9438 36.528 2.8462s25.972 1.7362 37.361 2.9862 20.834 2.9175 30.139 4.8612c9.305 1.945 18.472 4.1675 27.778 6.1112 9.3062 1.945 18.75 3.6112 31.806 5s29.721 2.5 73.332 3.0562 114.17 0.555 157.5 0.69375 59.445 0.4175 75.556 0.695c-0.1675-4.0562-0.33375-8.1112 0-13.056 0.3325-4.9438 1.1662-10.778 2.5825-16.611s3.4175-11.666 5.5-16.75 4.25-9.4162 7.6675-14.75 8.0825-11.666 13.332-17.416 11.084-10.916 16.168-14.834 9.4162-6.5825 14.416-9 10.666-4.5825 18.5-6.5 17.834-3.5825 28.084-3.9162 20.75 0.66625 30 2.6662 17.25 5 24.5 8.4175 13.75 7.25 19.332 11.75 10.25 9.6662 14.5 15.416 8.0837 12.084 11.334 19.166 5.9163 14.918 7.8338 22.834 3.0825 15.916 3.6662 23.084 0.5838 13.5 0.1663 20.082-1.25 13.418-2.75 20.168-3.6663 13.416-5.8325 20.082c11.166-1 22.332-2 28.5-2.8325s7.3325-1.5 9-1.8338 3.8325-0.33375 16.166-1.25 34.834-2.75 49.916-4.0838 22.75-2.1662 28.334-2.5 9.0838-0.16625 12.5-0.41625 6.75-0.91625 9.6663-2.5 5.4175-4.0838 6.5-5.4162 0.75-1.5-0.1663-3-2.4162-4.3338-3.1662-6.0838-0.75-2.4162-0.25-7.9162 1.5-15.834 2-24.584 0.5-15.916 0.25-21.834-0.75-10.582-1.9175-14.082-3-5.8338-5.4163-8.0838-5.4162-4.4162-8.6662-6.0838-6.75-2.8325-11.668-4.5825-11.25-4.0838-18.082-7.0838-14.168-6.6662-22.168-11.166-16.666-9.8338-24.666-15.25-15.334-10.918-22-16.084-12.666-10-17.5-14.166-8.5-7.6675-10.722-9.9862-3-3.4588-3.7775-4.5975zm-804.17-43.75c-3.3338-1.1112-6.6675-2.2225-8.6112-3.4725-1.945-1.25-2.5-2.6388-2.5-4.0275s0.555-2.7775 1.805-4.5838c1.25-1.805 3.195-4.0275 6.6675-6.6662s8.4712-5.6938 18.611-10c10.139-4.305 25.416-9.8612 48.61-16.805 23.195-6.945 54.306-15.279 80.556-21.111s47.639-9.1675 67.778-11.389 39.028-3.3338 55.972-3.6112 31.944 0.2775 43.889 1.25 20.834 2.3612 29.166 4.5825 16.111 5.2788 26.529 10.834c10.416 5.555 23.471 13.611 38.61 23.611s32.361 21.945 47.64 32.639c15.278 10.695 28.61 20.139 41.944 29.584-11.944 0-23.889 0-57.778-0.83375s-89.722-2.5-137.92-3.4725c-48.195-0.9725-88.75-1.25-125-2.2225s-68.195-2.6388-93.89-4.305c-25.694-1.6662-45.139-3.3338-57.778-5s-18.472-3.3338-24.305-5z" fill="none" stroke="#000" stroke-linejoin="round" stroke-miterlimit="10" stroke-width=".05"/>
  <path d="m64.059 261.76c3.9588-0.17375 11.32-0.2425 18.785-0.0688s15.035 0.59 22.291 0.9375 14.202 0.625 18.785 1.0412 6.8062 0.9725 8.5762 1.6312 3.0912 1.4238 4.2712 2.5 2.2225 2.4662 3.125 4.0288 1.6662 3.2988 2.1525 5.2775 0.695 4.2012 0.48625 6.1462c-0.20875 1.9438-0.83375 3.61-2.1175 5.2075s-3.23 3.125-5.2088 4.0275-3.9925 1.1812-9.6875 1.1462-15.07-0.3825-26.424-0.9725-24.688-1.4238-31.91-2.0825-8.3325-1.1462-9.5138-2.2225-2.43-2.7438-3.4725-4.375-1.875-3.23-2.3262-5.035-0.52-3.8188-0.34625-5.3125 0.59-2.465 1.4225-3.785 2.0838-2.9862 3.16-4.27 1.98-2.1875 2.7088-2.7788 1.285-0.8675 5.2425-1.0412z" fill="#2b2a2f" stroke="#000" stroke-linejoin="round" stroke-miterlimit="10" stroke-width=".0625"/>
  <path d="m385.17 263.88c-0.555 3.3325-0.555 10.139-1.1112 18.61s-1.6662 18.611-2.43 25.14-1.1812 9.4438-1.25 12.43 0.20875 6.0412 0.625 7.7088 0.9725 1.9438 20.694 1.7362 58.611-0.90375 85.279-1.5288 41.111-1.18 63.541-1.6662 52.848-0.9025 77.084-0.9025 42.291 0.41625 61.458 1.1112c19.168 0.69375 39.445 1.6662 58.195 2.6388s35.972 1.9438 50.416 2.5c14.445 0.555 26.111 0.69375 34.306 0.9025 8.1938 0.20875 12.916 0.48625 16.041 0.3475s4.6525-0.695 5.9025-1.875 2.2225-2.9862 2.6388-10.418 0.27875-20.485 0.07-27.152-0.48625-6.9438-1.0412-7.0825c-0.55625-0.14-1.39-0.14-8.9588-0.27875s-21.875-0.41625-29.375-0.35375-8.195 0.46625-9.7088 0.58375-3.8475-0.0487-42.18-0.18-112.67-0.23-153.79-0.62625c-41.125-0.395-49.041-1.09-58.902-2.5488s-21.666-3.68-34.791-6.295c-13.125-2.6138-27.57-5.6212-39.584-7.6975s-21.598-3.2212-32.014-4.1488-21.666-1.6362-30.052-2.2088c-8.385-0.5725-13.906-1.01-18.141-1.2875-4.2362-0.27875-7.1875-0.39625-9.2188-0.525s-3.1425-0.2675-3.6988 3.0662" fill="url(#v)"/>
  <path d="m385.17 263.88c-0.555 3.3325-0.555 10.139-1.1112 18.61s-1.6662 18.611-2.43 25.14-1.1812 9.4438-1.25 12.43 0.20875 6.0412 0.625 7.7088 0.9725 1.9438 20.694 1.7362 58.611-0.90375 85.279-1.5288 41.111-1.18 63.541-1.6662 52.848-0.9025 77.084-0.9025 42.291 0.41625 61.458 1.1112c19.168 0.69375 39.445 1.6662 58.195 2.6388s35.972 1.9438 50.416 2.5c14.445 0.555 26.111 0.69375 34.306 0.9025 8.1938 0.20875 12.916 0.48625 16.041 0.3475s4.6525-0.695 5.9025-1.875 2.2225-2.9862 2.6388-10.418 0.27875-20.485 0.07-27.152-0.48625-6.9438-1.0412-7.0825c-0.55625-0.14-1.39-0.14-8.9588-0.27875s-21.875-0.41625-29.375-0.35375-8.195 0.46625-9.7088 0.58375-3.8475-0.0487-42.18-0.18-112.67-0.23-153.79-0.62625c-41.125-0.395-49.041-1.09-58.902-2.5488s-21.666-3.68-34.791-6.295c-13.125-2.6138-27.57-5.6212-39.584-7.6975s-21.598-3.2212-32.014-4.1488-21.666-1.6362-30.052-2.2088c-8.385-0.5725-13.906-1.01-18.141-1.2875-4.2362-0.27875-7.1875-0.39625-9.2188-0.525s-3.1425-0.2675-3.6988 3.0662z" fill="none" stroke="#000" stroke-linejoin="round" stroke-miterlimit="10" stroke-width=".0625"/>
  <path d="m274.62 98.32c5.8325 1.6662 11.666 3.3338 24.305 5s32.084 3.3338 57.778 5c25.695 1.6662 57.64 3.3338 93.89 4.305s76.805 1.25 125 2.2225 104.03 2.6388 137.92 3.4725 45.834 0.83375 57.778 0.83375c-13.334-9.445-26.666-18.889-41.944-29.584s-32.5-22.639-47.64-32.639-28.194-18.056-38.61-23.611-18.195-8.6112-26.529-10.834-17.221-3.6112-29.166-4.5825-26.945-1.5288-43.889-1.25c-16.945 0.2775-35.834 1.3888-55.972 3.6112s-41.528 5.555-67.778 11.389-57.361 14.166-80.556 21.111c-23.194 6.9438-38.471 12.5-48.61 16.805s-15.14 7.3612-18.611 10-5.4175 4.8612-6.6675 6.6662c-1.25 1.8062-1.805 3.195-1.805 4.5838s0.555 2.7775 2.5 4.0275 5.2775 2.3612 8.6112 3.4725z" fill="#5c6d7d" stroke="#000" stroke-linejoin="round" stroke-miterlimit="10" stroke-width="3.75"/>
  <path d="m684.62 99.57c-13.056-9.0275-26.111-18.055-39.028-26.18s-25.695-15.348-35.972-19.375-18.056-4.8612-27.084-5.8338-19.305-2.0838-29.444-2.3612-20.14 0.2775-34.722 1.3888-33.75 2.7775-43.889 4.0275-11.25 2.0838-12.361 2.9175c2.5 0.8325 5 1.6662 6.5275 2.3612 1.5275 0.69375 2.0838 1.25 3.4725 5.6938 1.3888 4.445 3.6112 12.778 6.2088 21.595s5.5738 18.116 8.5475 27.416l191.67 4.1662 6.0762-15.816" fill="#eae7ea"/>
  <path d="m844.41 116.8c-5.8162 0.4425-11.631 0.885-18.992 1.3125s-16.268 0.8375-21.866 0.495-7.8912-1.44-20.704-9.9812-36.146-24.529-58.178-39.302-42.76-28.336-54.322-35.951c-11.562-7.6138-13.959-9.2812-15.365-10.52s-1.8225-2.0525-2.0312-3.085-0.2075-2.2812 0.4175-3.1138 1.875-1.25 3.3325-1.5625 3.125-0.52125 4.48-0.4175c1.3538 0.105 2.395 0.52125 15.938 7.8125s39.582 21.459 69.549 38.324 63.854 36.428 97.742 55.99z" fill="#f3f6f3" stroke="#000" stroke-linejoin="round" stroke-miterlimit="10" stroke-width=".0625"/>
  <path d="m664.05 14.737c-9.98-2.9175-19.959-5.8338-32.449-8.2088s-27.489-4.2088-41.989-5.2925-28.5-1.4162-44.584-1-34.25 1.5838-51 3.25-32.084 3.8338-46.166 6-26.918 4.3338-38.168 6.4175-20.916 4.0825-27.75 5.5-10.832 2.25-13.082 2.8325-2.75 0.9175-3.8338 2.0838-2.75 3.1662-4.4162 5.1662c6.6662-1.8325 13.332-3.6662 24.916-6.25s28.084-5.9162 43.084-8.5 28.5-4.4162 41.582-5.9162 25.75-2.6662 37.668-3.5838 23.082-1.5825 33.082-1.9162 18.834-0.33375 28 0.0837 18.668 1.25 31.084 3.1662 27.75 4.9162 37.322 7.4275 13.386 4.5312 17.199 6.5525c-0.77125-1.8125-1.5425-3.625-1.5-4.7912s0.895-1.6875 1.9575-2.125 2.3338-0.7925 3.875-0.9275 3.355-0.0525 5.1675 0.0312" fill="url(#u)"/>
  <path d="m664.05 14.737c-9.98-2.9175-19.959-5.8338-32.449-8.2088s-27.489-4.2088-41.989-5.2925-28.5-1.4162-44.584-1-34.25 1.5838-51 3.25-32.084 3.8338-46.166 6-26.918 4.3338-38.168 6.4175-20.916 4.0825-27.75 5.5-10.832 2.25-13.082 2.8325-2.75 0.9175-3.8338 2.0838-2.75 3.1662-4.4162 5.1662c6.6662-1.8325 13.332-3.6662 24.916-6.25s28.084-5.9162 43.084-8.5 28.5-4.4162 41.582-5.9162 25.75-2.6662 37.668-3.5838 23.082-1.5825 33.082-1.9162 18.834-0.33375 28 0.0837 18.668 1.25 31.084 3.1662 27.75 4.9162 37.322 7.4275 13.386 4.5312 17.199 6.5525c-0.77125-1.8125-1.5425-3.625-1.5-4.7912s0.895-1.6875 1.9575-2.125 2.3338-0.7925 3.875-0.9275 3.355-0.0525 5.1675 0.0312z" fill="none" stroke="#000" stroke-linejoin="round" stroke-miterlimit="10" stroke-width=".0625"/>
  <path d="m366.12 23.486c-6.1675 1.3338-12.334 2.6675-17.5 3.9175s-9.3338 2.4162-11.418 3.1662-2.0825 1.0838-2.0825 2.0838 0 2.6662 0.26375 4.18 0.79125 2.8762 1.3188 4.2375c3.6812-0.9725 7.3612-1.945 11.39-3.23s8.4025-2.8812 11.215-4.66 4.0625-3.7362 4.9375-5.3825 1.375-2.9788 1.875-4.3125" fill="url(#t)"/>
  <path d="m366.12 23.486c-6.1675 1.3338-12.334 2.6675-17.5 3.9175s-9.3338 2.4162-11.418 3.1662-2.0825 1.0838-2.0825 2.0838 0 2.6662 0.26375 4.18 0.79125 2.8762 1.3188 4.2375c3.6812-0.9725 7.3612-1.945 11.39-3.23s8.4025-2.8812 11.215-4.66 4.0625-3.7362 4.9375-5.3825 1.375-2.9788 1.875-4.3125z" fill="none" stroke="#000" stroke-linejoin="round" stroke-miterlimit="10" stroke-width=".0625"/>
  <path d="m217.12 72.986 116.67-34.666 0.83375 3.4912-116.5 34.175-1-3" fill="#2b2a2f"/>
  <path d="m264.12 51.486c-7.6675 1.5-15.334 3-23.25 5.3338s-16.084 5.5-23.5 8.5838-14.084 6.0825-20.75 9.0825" fill="none" stroke="#000" stroke-linejoin="round" stroke-miterlimit="10" stroke-width=".625"/>
  <path d="m217.62 72.486c6.8325-3 13.666-6 21.582-9s16.918-6 24.918-8.5825 15-4.75 21.916-6.6675 13.75-3.5825 20.334-4.9162 12.916-2.3338 19.25-3.3338" fill="none" stroke="#000" stroke-linejoin="round" stroke-miterlimit="10" stroke-width=".0625"/>
  <path d="m278.62 49.486-15 1.5 2.5 3.5 12.5-5" fill="#2b2a2f"/>
  <path d="m196.62 74.486-11 0.5-14 2.5-12.5 2-2.5-0.5-10.281 2.0938 2.0312 8.9062 3.4375-0.78125 0.9375 3.4375 4.375-0.65625-0.78125-3.5625 3.75-0.9375-0.9375-3.4375 3.4375-1.4062 17.031-5.1562 12.5-1.5 5-1.5" fill="#2b2a2f" stroke="#000" stroke-linejoin="round" stroke-miterlimit="10" stroke-width=".0625"/>
  <path d="m158.12 255.11c-3.3338-0.375-6.6675-0.75-16.167-1.105s-25.166-0.6875-37.666-1.1038-21.834-0.9175-28.5-1.25-10.666-0.5-13.834-0.5-5.5 0.16625-7.8325 0.75-4.6675 1.5825-6.6675 2.6662-3.6662 2.25-5.1662 3.5838-2.8338 2.8325-4.4162 5.4162-3.4175 6.25-5.1675 9.5-3.4162 6.0838-5.0675 8.4788c-1.6512 2.3962-3.2888 4.355-4.925 6.3138" fill="none" stroke="#000" stroke-linejoin="round" stroke-miterlimit="10" stroke-width=".05"/>
  <path d="m215.62 180.11c-11.375-0.25-22.75-0.5-39.271-0.9375s-38.187-1.0638-50.584-1.5838-15.52-0.9375-18.645-1.355" fill="none" stroke="#000" stroke-linejoin="round" stroke-miterlimit="10" stroke-width=".05"/>
  <path d="m365.12 204.49c-6.1675-6-12.334-12-18.25-16.666s-11.584-8-18.084-11.166-13.834-6.1675-21.584-8.4175-15.916-3.75-25.25-3.8325-19.832 1.25-30.082 3.5825-20.25 5.6675-28.418 9.1675-14.5 7.1662-21.082 12.082-13.418 11.084-19 17.834-9.9175 14.084-13.5 21.166-6.4175 13.918-8.9175 20.168-4.6662 11.916-7.3325 18.25-5.8338 13.332-8.5 18.082-4.8337 7.25-6.4025 8.8125-2.5375 2.1888-3.5075 2.8138" fill="none" stroke="#000" stroke-linejoin="round" stroke-miterlimit="10" stroke-width=".05"/>
  <path d="m124.62 152.99-91-1.5-17 24.5h89l19-23z" fill="#f92f2c" stroke="#323535" stroke-linejoin="round" stroke-miterlimit="10" stroke-width=".0625"/>
  <path d="m119.82 119.52c-2.9162-0.5725-8.125-1.3012-14.114-2.2912s-12.761-2.24-17.396-3.2288c-4.635-0.99-7.135-1.7188-9.3225-2.8125s-4.0625-2.5525-5.2612-3.8025-1.7188-2.2912-2.0825-2.8125-0.57375-0.52125-2.9175-0.26-6.8225 0.78125-11.354 0.67625-9.115-0.8325-13.854-2.1875c-4.74-1.3538-9.6362-3.3325-14.168-5.3125s-8.6975-3.9575-11.25-5.1562-3.4888-1.6138-4.27-1.6138-1.4062 0.41625-1.355 1.4575 0.78125 2.7088 3.2812 5.1562 6.7712 5.6775 11.302 8.5938 9.3225 5.5212 14.479 7.8125 10.678 4.2712 16.562 5.99c5.8862 1.7188 12.136 3.1775 19.062 4.0625 6.9275 0.885 14.531 1.1975 21.355 1.1975s12.864-0.3125 16.614-0.5725 5.2088-0.46875 6.3025-1.0412 1.8225-1.5112 1.875-2.1875-0.5725-1.0938-3.49-1.6675z" fill="#2b2a2f" stroke="#000" stroke-linejoin="round" stroke-miterlimit="10" stroke-width=".0625"/>
  <path d="m20.553 104.93c-0.73 0.885-1.1462 3.5938-0.78125 5.9375s1.51 4.3225 3.2288 6.51 4.01 4.5838 5.99 7.0312 3.645 4.9475 4.9475 7.2912 2.24 4.5312 2.865 6.615 0.9375 4.0625 2.8638 4.1662c1.9275 0.105 5.4688-1.6662 9.48-4.0625s8.4888-5.4162 11.51-7.5 4.5838-3.2288 5.1562-3.8012 0.15625-0.57375-1.9275-1.0425-5.8325-1.4062-10.104-2.8125-9.0625-3.2812-13.594-5.5725-8.8025-5-11.562-7.0312-4.01-3.385-5.1562-4.5312-2.1875-2.0838-2.9162-1.1975z" fill="#2b2a2f" stroke="#000" stroke-linejoin="round" stroke-miterlimit="10" stroke-width=".0625"/>
  <path d="m124.3 152.49c1.3538-1.77 2.7075-3.5412 3.4375-5.0512s0.8325-2.7612 0.36375-4.115-1.51-2.8125-3.75-4.01-5.6762-2.1362-9.5312-3.1775c-3.8538-1.0412-8.125-2.1875-12.135-3.1775s-7.76-1.8225-10.416-2.5512-4.2188-1.355-5.7812-1.98" fill="none" stroke="#000" stroke-linejoin="round" stroke-miterlimit="10" stroke-width=".0625"/>
  <path d="m115.87 151.86c0.41625-1.0412 0.8325-2.0825 0.98875-3.02s0.0525-1.7712-0.9375-2.7088-2.8638-1.9788-5.2075-3.385-5.1562-3.1775-8.1775-4.5838-6.25-2.4475-9.9475-3.49-7.865-2.0825-11.406-3.02-6.4588-1.7712-9.2188-2.3962-5.365-1.0412-7.9688-1.4588" fill="none" stroke="#000" stroke-linejoin="round" stroke-miterlimit="10" stroke-width=".0625"/>
  <path d="m499.13 288.32c-5.4862-1.805-13.125-4.0275-23.125-6.3888s-22.361-4.8612-32.709-6.6662c-10.348-1.8062-18.68-2.9175-24.028-3.3338s-7.7088-0.13875-9.7225 0.555-3.68 1.8062-5 3.5425-2.2912 4.0975-2.7775 6.1112-0.48625 3.68-0.20875 6.0412 0.83375 5.4162 2.3612 8.5412 4.0275 6.32 6.4588 8.75 4.7912 4.0975 9.375 5.4175 11.389 2.2912 18.402 2.9162 14.236 0.9025 23.402 0.9025 20.279-0.2775 37.779-0.69375 41.389-0.9725 65.346-1.32 47.986-0.48625 71.875-0.41625 47.639 0.34625 73.611 0.9025 54.168 1.3888 76.459 1.805 38.68 0.4175 49.584 0.695 16.319 0.83375 18.68 0.83375 1.6662-0.55625-6.6662-1.32-24.306-1.7362-52.639-3.125-69.029-3.1938-112.15-5.6938-88.68-5.695-117.78-8.0562-41.736-3.8888-49.722-5.3475-11.319-2.8462-16.805-4.6525z" fill="none" stroke="#000" stroke-linejoin="round" stroke-miterlimit="10" stroke-width=".0625"/>
  <path d="m493.92 290.54c-4.4438-1.25-12.5-3.195-21.944-5.4162-9.445-2.2225-20.279-4.7225-29.306-6.5288-9.0275-1.805-16.25-2.9162-21.319-3.4025s-7.9862-0.3475-10.07 0.55625-3.3338 2.5688-4.0975 4.7912-1.0412 5-0.625 7.5688 1.5288 4.9312 2.7088 7.1538 2.43 4.305 4.0275 6.3188 3.5425 3.9588 6.5975 5.3475 7.2225 2.2225 14.584 2.7775c7.3612 0.55625 17.916 0.83375 26.458 0.9025s15.07-0.0688 19.861-0.41625 7.8475-0.9025 10.834-2.3612 5.9025-3.8188 7.3612-5.6938c1.4575-1.875 1.4575-3.2638 1.3888-4.7225s-0.20875-2.9862-0.695-4.0275-1.3188-1.5975-5.7638-2.8475z" fill="none" stroke="#000" stroke-linejoin="round" stroke-miterlimit="10" stroke-width=".0625"/>
  <path d="m484.12 288.24c-2.6675-0.5825-5.3338-1.1662-7.6675-1.7075s-4.3325-1.0425-6.3325-1.5425c-6.4175-1.5-12.834-3-19-4.375s-12.084-2.625-17.418-3.5825-10.082-1.625-13.625-1.9175-5.875-0.2075-7.7075 0.4175-3.1675 1.7912-4.0838 3.125-1.4162 2.8325-1.5838 4.4575c-0.16625 1.625 0 3.375 0.33375 5.0425s0.83375 3.25 1.5412 5 1.625 3.6662 2.6675 5.3325 2.2075 3.0838 2.7912 3.7088 0.58375 0.45875 0.75 0.0412 0.5-1.0825 0.41625-1.7912-0.5825-1.4588-1.3325-2.625-1.75-2.75-2.5425-4.4162-1.375-3.4175-1.625-5.2088-0.16625-3.625 0.0838-5.2088 0.66625-2.9162 1.625-3.7075 2.4588-1.0425 4.9588-1.0425 6 0.25 9.9575 0.58375 8.375 0.75 13 1.4162 9.4588 1.5838 14.334 2.5425 9.7912 1.9575 14.875 2.875 10.334 1.75 15.584 2.5825z" fill="#2b2a2f" stroke="#000" stroke-linejoin="round" stroke-miterlimit="10" stroke-width=".0625"/>
  <path d="m441.28 131.65c-0.66625-1.6675-2.1662-3.6675-5.25-5s-7.75-2-13.334-2.25-12.082-0.0837-18.082 0.3325-11.5 1.0838-15.584 2.3338-6.75 3.0838-8.6662 5.1662-3.0838 4.4175-3.5838 7.5-0.33375 6.9175 0.83375 11.918 3.3325 11.166 6.3325 17.5 6.8338 12.832 11 18.25 8.6675 9.75 14 13.332 11.5 6.4175 17.334 8.75 11.334 4.1675 16.584 5.4175 10.25 1.9162 13.5 1.75 4.75-1.1675 5.8325-2.75 1.75-3.75 1.5838-5.8338-1.1662-4.0838-3.1662-7.5-5-8.25-7.6675-13.834-5-11.916-6.9162-17.582-3.4162-10.668-4.25-14.75-1-7.25-0.91625-10.168 0.41625-5.5825 0.66625-7.5825 0.41625-3.3338-0.25-5" fill="url(#p)"/>
  <path d="m441.28 131.65c-0.66625-1.6675-2.1662-3.6675-5.25-5s-7.75-2-13.334-2.25-12.082-0.0837-18.082 0.3325-11.5 1.0838-15.584 2.3338-6.75 3.0838-8.6662 5.1662-3.0838 4.4175-3.5838 7.5-0.33375 6.9175 0.83375 11.918 3.3325 11.166 6.3325 17.5 6.8338 12.832 11 18.25 8.6675 9.75 14 13.332 11.5 6.4175 17.334 8.75 11.334 4.1675 16.584 5.4175 10.25 1.9162 13.5 1.75 4.75-1.1675 5.8325-2.75 1.75-3.75 1.5838-5.8338-1.1662-4.0838-3.1662-7.5-5-8.25-7.6675-13.834-5-11.916-6.9162-17.582-3.4162-10.668-4.25-14.75-1-7.25-0.91625-10.168 0.41625-5.5825 0.66625-7.5825 0.41625-3.3338-0.25-5z" fill="none" stroke="#000" stroke-linejoin="round" stroke-miterlimit="10" stroke-width=".0625"/>
  <path d="m400.35 182.92c1.9025 0.83 6.2638 3.1388 8.1 3.895 2.8338 1.1662 5.5 2.1662 7.25 2.75s2.5838 0.75 2.5 0.16625-1.0825-1.9162-2.25-4.8325-2.5-7.4175-4-12.334-3.1662-10.25-4-15.666-0.8325-10.918-0.75-14.168 0.25-4.25 1.9175-5.1662 4.8325-1.75 8-2.8338 6.3325-2.4162 9.5-3.75c-6.6675-0.16625-13.334-0.3325-18.918 0.1675s-10.082 1.6662-13.166 2.9162-4.75 2.5838-6 4.4162-2.0838 4.1675-2.1662 7.0838 0.5825 6.4162 1.9162 10.834 3.3338 9.75 5.9162 15.166c1.88 3.9412 4.0675 7.925 6.15 11.355z" fill="#32353e" stroke="#000" stroke-linejoin="round" stroke-miterlimit="10" stroke-width=".05"/>
  <path d="m458.2 209.07c-0.25-0.91625-1.4162-2.25-4.5-4s-8.0825-3.9162-13.916-6.4162-12.5-5.3338-17.666-7.4175-8.8338-3.4162-12.25-4.5-6.5838-1.9162-6.75-0.75 2.6662 4.3338 6.5825 7.1675 8.9175 5.3325 14.418 7.6662 11.5 4.5 16 6.1662 7.5 2.8338 10.082 3.4175 4.75 0.5825 6.1675 0.3325 2.0825-0.75 1.8325-1.6662z" fill="#d5d8d8" stroke="#000" stroke-linejoin="round" stroke-miterlimit="10" stroke-width=".05"/>
  <path d="m400.38 182.95c0.79125 1.2938 1.5712 2.5112 2.32 3.6238 2.75 4.0838 5.0838 6.75 8.8338 9.1662s8.9162 4.5838 14.584 6.8338 11.832 4.5838 16.416 6.0838 7.5838 2.1662 10.25 2.3325 5-0.16625 6.1662-0.75 1.1675-1.4162 0.75-2.75-1.25-3.1662-2.6662-5.9162-3.4162-6.4162-5.4162-10.5-4-8.5838-5.8338-12.916-3.5-8.5-5.1662-12.668" fill="none" stroke="#000" stroke-linejoin="round" stroke-miterlimit="10" stroke-width=".05"/>
  <path d="m468.21 114.86c-2.8638 2.125-5.7262 4.25-8.565 7.3425s-5.65 7.1562-7.4738 10.699-2.6562 6.5625-3.0725 9.27-0.41625 5.105-0.0525 7.9688c0.365 2.865 1.0938 6.1988 2.1875 10.261s2.5525 8.8538 5.1562 15.208c2.605 6.355 6.355 14.271 10.418 21.719s8.4375 14.428 12.76 20.938 8.5938 12.552 12.709 17.812c4.1138 5.2612 8.0725 9.74 12.239 14.219s8.5425 8.9588 12.709 12.605 8.125 6.4575 12.5 8.9575 9.1662 4.6875 14.896 6.5112 12.395 3.2812 19.01 4.27 13.178 1.5112 19.948 1.7712 13.75 0.26 25 0.3125 26.771 0.15625 45.678 0.20875 41.198 0.0512 63.594 0.2075 44.896 0.46875 60.026 0.75625 22.89 0.54625 30.651 0.80625c1.3012-7.8638 2.6038-15.729 4.0888-24.712 1.4838-8.985 3.15-19.089 4.6612-28.932s2.8638-19.428 3.645-27.865 0.99-15.729 0.9375-22.031-0.36375-11.615-0.98875-16.25-1.5625-8.5938-2.9688-12.291-3.2812-7.1362-5.5738-10.312-5-6.0938-8.8012-9.0112-8.6988-5.8325-13.021-8.1762-8.0725-4.115-11.256-5.0425-5.7975-1.01-8.4138-1.0925" fill="url(#s)"/>
  <path d="m468.21 114.86c-2.8638 2.125-5.7262 4.25-8.565 7.3425s-5.65 7.1562-7.4738 10.699-2.6562 6.5625-3.0725 9.27-0.41625 5.105-0.0525 7.9688c0.365 2.865 1.0938 6.1988 2.1875 10.261s2.5525 8.8538 5.1562 15.208c2.605 6.355 6.355 14.271 10.418 21.719s8.4375 14.428 12.76 20.938 8.5938 12.552 12.709 17.812c4.1138 5.2612 8.0725 9.74 12.239 14.219s8.5425 8.9588 12.709 12.605 8.125 6.4575 12.5 8.9575 9.1662 4.6875 14.896 6.5112 12.395 3.2812 19.01 4.27 13.178 1.5112 19.948 1.7712 13.75 0.26 25 0.3125 26.771 0.15625 45.678 0.20875 41.198 0.0512 63.594 0.2075 44.896 0.46875 60.026 0.75625 22.89 0.54625 30.651 0.80625c1.3012-7.8638 2.6038-15.729 4.0888-24.712 1.4838-8.985 3.15-19.089 4.6612-28.932s2.8638-19.428 3.645-27.865 0.99-15.729 0.9375-22.031-0.36375-11.615-0.98875-16.25-1.5625-8.5938-2.9688-12.291-3.2812-7.1362-5.5738-10.312-5-6.0938-8.8012-9.0112-8.6988-5.8325-13.021-8.1762-8.0725-4.115-11.256-5.0425-5.7975-1.01-8.4138-1.0925" fill="none" stroke="#000" stroke-linejoin="round" stroke-miterlimit="10" stroke-width=".1625"/>
  <path d="m698.2 78.403c-1.9162 1.25-4.25 3.9162-5.8325 7.1662s-2.4175 7.0838-2.4175 11.084 0.83375 8.1662 2.1675 10.916 3.1662 4.0838 5.4162 5.1662 4.9162 1.9175 8.8338 2.1675 9.0825-0.0837 13.25-0.75 7.3325-1.6675 9.6662-3.0838 3.8338-3.25 4.9162-5.1662 1.75-3.9175 2.0838-5.5 0.33375-2.75-0.25-4.3338-1.75-3.5838-4.1662-5.8338-6.0838-4.75-10.084-6.9162-8.3338-4-11.5-4.9162-5.1662-0.9175-6.9162-1-3.25-0.25-5.1675 1" fill="#32353e"/>
  <path d="m1149.3 196.8c-0.865-0.43875-3.6425-0.9175-4.6875-1.5625-8.3338-5.1388-16.076-11.25-24.062-16.875s-14.236-10.902-21.25-16.875c-3.2688-2.7825-7.3113-5.9288-10.625-9.0625-3.7975-3.5912-6.8563-7.1888-10.418-10.564 4.8612 1.0425 9.7225 2.0838 13.125 2.7438s5.3475 0.9375 7.9175 2.7425 5.7637 5.1388 10.139 9.6538c4.375 4.5138 9.93 10.208 15.764 15.971s11.945 11.598 16.008 15.58 6.0762 6.115 8.09 8.2475z" fill="#949791" stroke="#000" stroke-linejoin="round" stroke-miterlimit="10" stroke-width=".0625"/>
  <path d="m1141.5 193.05c-3.2638 1.7562-6.5275 3.5138-9.6188 4.7388-3.09 1.2262-6.0062 1.92-12.049 2.4062s-15.208 0.76375-24.652 0.695c-9.4438-0.07-19.166-0.48625-28.055-0.76375s-16.945-0.4175-25-0.55625" fill="none" stroke="#000" stroke-linejoin="round" stroke-miterlimit="10" stroke-width=".0625"/>
  <path d="m1222.7 256.24c-3.125-1.2575-9.375-1.6738-12.639-1.465s-3.5425 1.0412-3.6812 8.9575-0.1388 22.918 0.07 30.418 0.625 7.5 2.9162 8.3325 6.4588 2.5 9.0275 3.375 3.5425 0.95875 4.2013-1.915c0.66-2.875 1.0075-8.7088 1.4937-16.244 0.4863-7.535 1.1113-16.77 1.4238-22.438s0.3125-7.7638-2.8125-9.0212" fill="#888282"/>
  <path d="m1218.2951,246.79204c-1.18.41625-4.0975.13875-7.3613-.48625s-6.875-1.5975-11.875-2.1525c-5-.55625-11.3887-.695-15.4862-1.0425s-5.9025-.9025-8.055-2.01375-4.6525-2.7775-6.805-5-3.9588-5-4.9313-7.0825-1.1112-3.4725-.625-4.375 1.5975-1.32 7.1525-1.38875c5.5563-.07 15.5563.2075 22.5.625 6.945.41625 10.8338.97125 13.5425,1.59625s4.2363,1.32 5.555,2.2925 2.4313,2.22125 3.3338,4.375 1.5975,5.2075 2.0825,7.36125 .765,3.4025 1.1812,4.5825 .9725,2.2925-.2087,2.70875z" fill="#888282" stroke="#000" stroke-linejoin="round" stroke-miterlimit="10" stroke-width="1.875"/>
  <path d="m1171.8376,227.62579c5,0 14.7212.555 19.93.97125s5.9025.695 6.3887,1.0425 .7638.76375 1.1813,2.84625 .9712,5.83375.8325,7.70875-.9725,1.875-4.305,1.73625-9.1675-.41625-13.195-.695-6.25-.555-7.9863-1.4575-2.9862-2.43125-4.2362-4.0275-2.5-3.265-3.1938-4.445-.8337-1.875-.7637-2.5 .3475-1.18 5.3475-1.18z" fill="#fff" stroke="#a6a6a6" stroke-linejoin="round" stroke-miterlimit="10" stroke-width=".0625"/>
  <path d="m1064.6 230.99c-3.3338-6.8325-6.6675-13.666-10.918-19.916s-9.4163-11.916-15.25-16.916-12.332-9.3338-20.5-13.25-18-7.4175-28.666-9.5-22.166-2.75-33-2.1675-21 2.4175-30.166 5.4175-17.334 7.1662-25 11.916-14.834 10.084-21.168 16-11.832 12.416-16.666 20.25-9 17-12 26.584-4.8338 19.582-6.0838 25.75-1.9162 8.5-2.5825 10.832" fill="none" stroke="#000" stroke-linejoin="round" stroke-miterlimit="10" stroke-width=".05"/>
  <path d="m1234.2 354.05c-7.8125-1.5625-27.604-3.125-59.895-4.4262s-77.084-2.3438-108.33-2.3438-48.959 1.0412-79.947 1.0412-75.261-1.0412-121.88-1.5625c-46.615-0.52125-95.574-0.52125-145.57-0.52125h-517.19c-44.27 0-86.457 0-113.8 0.26125s-39.844 0.78125-48.178 1.0412-12.5 0.26-15.104 0.78125c-2.605 0.52125-3.6462 1.5625-4.1675 2.3438s-0.52 1.3025 3.125 2.0838 10.938 1.8225 36.199 2.3438 68.489 0.52 116.41 0.52h168.49c67.969 0 151.3 0 243.23 0.26125s192.45 0.78125 272.14 1.3012 138.54 1.0425 187.24 1.5625 87.239 1.0425 113.54 1.3025 40.365 0.26 50.521 0 16.406-0.78125 21.614-1.8225 9.375-2.605 1.5625-4.1675" fill="#32353e"/>
  <path d="m965.89 214.84c27.925 0 50.561 22.638 50.561 50.561s-22.636 50.561-50.561 50.561c-27.924 0-50.56-22.638-50.56-50.561s22.636-50.561 50.56-50.561" fill="url(#r)"/>
  <path d="m965.89 214.84c27.925 0 50.561 22.638 50.561 50.561s-22.636 50.561-50.561 50.561c-27.924 0-50.56-22.638-50.56-50.561s22.636-50.561 50.56-50.561z" fill="none" stroke="#35343c" stroke-linejoin="round" stroke-miterlimit="10" stroke-width=".11174"/>
  <path d="m938.12 302.25-0.3725-81.568h-7.0762l-16.761 18.251 0.3725 45.811 13.409 17.132 10.429 0.3725" fill="#d51319"/>
  <path d="m965.89 189.14c42.118 0 76.26 34.142 76.26 76.26s-34.142 76.26-76.26 76.26-76.26-34.142-76.26-76.26 34.144-76.26 76.26-76.26zm-62.976 71.815-0.43375 0.255 48.8-7.2438-9.0025-47.202c-21.826 8.8438-37.651 29.574-39.364 54.191zm47.969-57.066-0.48 0.29375 0.5625-0.13875 22.691 42.469 40.711-21.564c-11.441-13.788-28.92-22.68-48.478-22.68-5.1412 0-10.14 0.615-14.925 1.775l-0.0825-0.155zm69.191 93.944-0.01-5e-3c5.685-9.4775 8.9537-20.571 8.9537-32.428 0-12.216-3.47-23.622-9.3412-33.26l-32.644 32.999 33.031 32.689-0.27 0.44625 0.2762-0.44125zm-68.15 29.581 0.4625-0.33c4.35 0.9475 8.8688 1.4475 13.504 1.4475 19.609 0 37.13-8.94 48.696-22.879l-40.959-21.588-21.704 43.349zm-9.12-3.3662 8.6862-47.315-48.616-6.8325c1.7538 24.768 17.855 45.662 40.075 54.334l-0.145-0.18625" fill="url(#o)"/>
  <path d="m965.89 189.14c42.118 0 76.26 34.142 76.26 76.26s-34.142 76.26-76.26 76.26-76.26-34.142-76.26-76.26 34.144-76.26 76.26-76.26zm-62.976 71.815-0.43375 0.255 48.8-7.2438-9.0025-47.202c-21.826 8.8438-37.651 29.574-39.364 54.191zm47.969-57.066-0.48 0.29375 0.5625-0.13875 22.691 42.469 40.711-21.564c-11.441-13.788-28.92-22.68-48.478-22.68-5.1412 0-10.14 0.615-14.925 1.775l-0.0825-0.155zm69.191 93.944-0.01-5e-3c5.685-9.4775 8.9537-20.571 8.9537-32.428 0-12.216-3.47-23.622-9.3412-33.26l-32.644 32.999 33.031 32.689-0.27 0.44625 0.2762-0.44125zm-68.15 29.581 0.4625-0.33c4.35 0.9475 8.8688 1.4475 13.504 1.4475 19.609 0 37.13-8.94 48.696-22.879l-40.959-21.588-21.704 43.349zm-9.12-3.3662 8.6862-47.315-48.616-6.8325c1.7538 24.768 17.855 45.662 40.075 54.334l-0.145-0.18625z" fill="none" stroke="#15180f" stroke-linejoin="round" stroke-miterlimit="10" stroke-width=".0625"/>
  <path d="m986.05 253.31c0.68875 2.3362-0.6475 4.79-2.985 5.4775s-4.79-0.6475-5.4775-2.985 0.6475-4.79 2.985-5.4775 4.7888 0.6475 5.4775 2.985" fill="url(#n)"/>
  <path d="m985.09 272.99c0.68875 2.3375-0.6475 4.79-2.985 5.4788s-4.79-0.64875-5.4775-2.985 0.6475-4.79 2.985-5.4788 4.7888 0.6475 5.4775 2.985" fill="url(#m)"/>
  <path d="m966.44 279.92c0.68875 2.3362-0.6475 4.79-2.985 5.4775s-4.79-0.6475-5.4775-2.985 0.6475-4.7888 2.985-5.4775 4.7888 0.6475 5.4775 2.985" fill="url(#l)"/>
  <path d="m953.95 262.91c0.68875 2.3362-0.6475 4.7888-2.985 5.4775s-4.7888-0.6475-5.4775-2.985 0.6475-4.79 2.985-5.4775 4.79 0.6475 5.4775 2.985" fill="url(#k)"/>
  <path d="m966.39 246.59c0.6875 2.3375-0.64875 4.79-2.985 5.4788s-4.79-0.6475-5.4788-2.985 0.64875-4.79 2.985-5.4788 4.79 0.64875 5.4788 2.985" fill="url(#j)"/>
  <path d="m974.4 262.9c1.285 4.3612-1.2088 8.9375-5.57 10.222-4.36 1.2838-8.9375-1.21-10.221-5.57s1.2088-8.9375 5.5688-10.222c4.3612-1.2838 8.9375 1.21 10.222 5.57" fill="url(#i)"/>
  <path d="m965.89 172.7c-51.194 0-92.696 41.501-92.696 92.696s41.502 92.696 92.696 92.696c51.195 0 92.698-41.501 92.698-92.696s-41.502-92.696-92.698-92.696zm0 16.435c42.119 0 76.261 34.144 76.261 76.261s-34.142 76.261-76.261 76.261-76.26-34.144-76.26-76.261 34.142-76.261 76.26-76.261z" fill="#2f2f2f" stroke="#15180f" stroke-linejoin="round" stroke-miterlimit="10" stroke-width=".125"/>
  <path d="m278.53 313.63c-27.924 0-50.56-22.638-50.56-50.561s22.636-50.561 50.56-50.561 50.561 22.638 50.561 50.561-22.638 50.561-50.561 50.561" fill="url(#q)"/>
  <path d="m278.53 313.63c-27.924 0-50.56-22.638-50.56-50.561s22.636-50.561 50.56-50.561 50.561 22.638 50.561 50.561-22.638 50.561-50.561 50.561z" fill="none" stroke="#35343c" stroke-linejoin="round" stroke-miterlimit="10" stroke-width=".11174"/>
  <path d="m306.3 226.22 0.3725 81.568h7.0762l16.76-18.25-0.3725-45.812-13.408-17.132-10.429-0.3725" fill="#d51319"/>
  <path d="m278.53 339.33c-42.118 0-76.26-34.142-76.26-76.26s34.142-76.26 76.26-76.26 76.26 34.142 76.26 76.26-34.143 76.26-76.26 76.26zm62.978-71.815 0.4325-0.255-48.8 7.245 9.0025 47.201c21.826-8.8438 37.652-29.574 39.365-54.191zm-47.97 57.066 0.48125-0.29375-0.56375 0.13875-22.69-42.468-40.711 21.562c11.44 13.788 28.92 22.68 48.476 22.68 5.1412 0 10.14-0.615 14.925-1.775l0.0825 0.155zm-69.19-93.944 5e-3 5e-3c-5.685 9.4775-8.9538 20.571-8.9538 32.428 0 12.216 3.47 23.622 9.3425 33.26l32.644-32.999-33.032-32.689 0.27-0.44625-0.275 0.44125zm68.15-29.581-0.4625 0.33c-4.3512-0.9475-8.87-1.4475-13.505-1.4475-19.609 0-37.129 8.94-48.695 22.879l40.959 21.588 21.704-43.349zm9.12 3.3662-8.6862 47.315 48.616 6.8338c-1.755-24.769-17.856-45.664-40.075-54.335l0.145 0.18625" fill="url(#h)"/>
  <path d="m278.53 339.33c-42.118 0-76.26-34.142-76.26-76.26s34.142-76.26 76.26-76.26 76.26 34.142 76.26 76.26-34.143 76.26-76.26 76.26zm62.978-71.815 0.4325-0.255-48.8 7.245 9.0025 47.201c21.826-8.8438 37.652-29.574 39.365-54.191zm-47.97 57.066 0.48125-0.29375-0.56375 0.13875-22.69-42.468-40.711 21.562c11.44 13.788 28.92 22.68 48.476 22.68 5.1412 0 10.14-0.615 14.925-1.775l0.0825 0.155zm-69.19-93.944 5e-3 5e-3c-5.685 9.4775-8.9538 20.571-8.9538 32.428 0 12.216 3.47 23.622 9.3425 33.26l32.644-32.999-33.032-32.689 0.27-0.44625-0.275 0.44125zm68.15-29.581-0.4625 0.33c-4.3512-0.9475-8.87-1.4475-13.505-1.4475-19.609 0-37.129 8.94-48.695 22.879l40.959 21.588 21.704-43.349zm9.12 3.3662-8.6862 47.315 48.616 6.8338c-1.755-24.769-17.856-45.664-40.075-54.335l0.145 0.18625z" fill="none" stroke="#15180f" stroke-linejoin="round" stroke-miterlimit="10" stroke-width=".0625"/>
  <path d="m258.37 275.16c-0.6875-2.3362 0.64875-4.7888 2.985-5.4775s4.79 0.6475 5.4788 2.985-0.6475 4.79-2.985 5.4775-4.79-0.6475-5.4788-2.985" fill="url(#g)"/>
  <path d="m259.33 255.48c-0.68875-2.3375 0.64875-4.79 2.985-5.4788s4.79 0.64875 5.4788 2.985-0.6475 4.79-2.985 5.4788-4.79-0.6475-5.4788-2.985" fill="url(#f)"/>
  <path d="m277.98 248.54c-0.6875-2.3362 0.64875-4.7888 2.985-5.4775s4.79 0.6475 5.4788 2.985-0.6475 4.7888-2.985 5.4775-4.79-0.6475-5.4788-2.985" fill="url(#e)"/>
  <path d="m290.46 265.56c-0.68875-2.3362 0.64875-4.7888 2.985-5.4775s4.79 0.6475 5.4788 2.985-0.64875 4.79-2.985 5.4775-4.79-0.6475-5.4788-2.985" fill="url(#d)"/>
  <path d="m278.02 281.87c-0.68875-2.3375 0.6475-4.79 2.985-5.4788s4.79 0.64875 5.4775 2.985-0.6475 4.79-2.985 5.4788-4.7888-0.64875-5.4775-2.985" fill="url(#c)"/>
  <path d="m270.02 265.57c-1.285-4.3612 1.2088-8.9375 5.5688-10.222 4.3612-1.2838 8.9375 1.21 10.222 5.57 1.285 4.3612-1.2088 8.9375-5.57 10.222-4.36 1.2838-8.9375-1.2088-10.221-5.57" fill="url(#b)"/>
  <path d="m278.53 355.77c51.195 0 92.696-41.501 92.696-92.696s-41.501-92.696-92.696-92.696-92.696 41.501-92.696 92.696 41.501 92.696 92.696 92.696zm0-16.435c-42.118 0-76.261-34.144-76.261-76.261s34.144-76.261 76.261-76.261 76.261 34.144 76.261 76.261-34.144 76.261-76.261 76.261z" fill="#2f2f2f" stroke="#15180f" stroke-linejoin="round" stroke-miterlimit="10" stroke-width=".125"/>
  <path d="m432.62 57.486c-14 3.5-28 7-43.168 11.25s-31.5 9.25-42.916 12.918-17.916 6-21 7.25-2.75 1.4162-2 2.0825 1.9162 1.8338 3.75 2.5838 4.3338 1.0838 5.75 1.5838 1.75 1.1662 2.4162 2.0825 1.6675 2.0838 2.5838 2.9175 1.75 1.3325 2.1662 1.5825 0.4175 0.25 14 1 40.75 2.25 58.834 3.3338 27.084 1.75 36.084 2.4162l-16.5-51" fill="#eae7ea"/>
  <path d="m312.88 102.68c-0.7975 0.365-10.172-0.5725-17.312-1.3638s-12.045-1.4388-15.998-2.22-6.9525-1.6975-9.2025-2.5312-3.75-1.5838-4.5425-2.8338-0.875-3-0.125-4.7912 2.3338-3.625 4.4175-5.4588 4.6662-3.6662 8.2075-5.5825 8.0425-3.9175 11.5-5.5 5.875-2.75 6.7925-3 0.3325 0.41625-1.1675 1.75-3.9162 3.3325-5.9162 5.3325-3.5838 4-4.625 5.875-1.5412 3.625-1.625 5.3338 0.25 3.375 1.125 4.6662 2.2912 2.2088 4.6662 3.25 5.7088 2.2088 11.265 3.625 13.338 3.0838 12.54 3.4488" fill="#3e4147"/>
  <path d="m424.12 30.112 25 78.25" fill="#3e4147" stroke="#000" stroke-linejoin="round" stroke-miterlimit="10" stroke-width=".25"/>
  <path d="m446.37 26.862 29.5 86" fill="#3e4147" stroke="#000" stroke-linejoin="round" stroke-miterlimit="10" stroke-width=".25"/>
  <path d="m832.94 117.79c1.5275-1.1575 3.0562-2.315 4.2012-3.5875s1.91-2.6625 2.2925-3.935 0.38125-2.4312 0.38125-3.5888" fill="none" stroke="#000" stroke-linejoin="round" stroke-miterlimit="10" stroke-width="2.465"/>
  <path d="m833.92 315.26c-21.805-1.1112-65.139-1.945-110-2.5-44.861-0.55625-91.25-0.83375-134.03-0.27875-42.778 0.55625-81.945 1.945-110.97 2.3612s-47.916-0.13875-62.082-0.97125-23.611-1.945-28.611-1.5288-5.5562 2.3612-5.9725 4.5838-0.695 4.7225-0.36125 6.965 1.2775 4.23 7.655 5.33 18.188 1.315 47.16 0.3225 75.106-3.1938 117.34-4.4338 80.568-1.5175 115.15-0.8225c34.584 0.69375 65.418 2.3612 91.668 3.6112s47.916 2.0825 62.465 2.715 21.979 1.0625 26.111 0.34125 4.965-2.5975 5.555-4.7575 0.9375-4.605 0.9725-6.5212-0.2425-3.305-22.049-4.4162z" fill="#5d5b60" stroke="#000" stroke-linejoin="round" stroke-miterlimit="10" stroke-width=".0625"/>
  <path d="m383.12 328.61c41.724-0.27 83.449-0.54 117.45-1.2825s60.275-1.96 87.371-2.3875 55.012-0.0663 82.096 0.635 53.334 1.7438 78.021 2.8888 47.812 2.3962 64.27 2.98 26.25 0.5 36.042 0.41625" fill="none" stroke="#000" stroke-linejoin="round" stroke-miterlimit="10" stroke-width="2.5"/>
  <path d="m48.615 264.99c-8.1675-0.66625-16.334-1.3325-22.834-1.9162s-11.334-1.0838-16.166-1.5838c0.5 1.1675 1 2.3338 2.1662 3.25s3 1.5838 6.4162 2.0838 8.4175 0.83375 12.668 1.0838 7.75 0.41625 9.75 0.5 2.5 0.0825 3.5825-0.5 2.75-1.75 4.4175-2.9175z" fill="#afb2af" stroke="#000" stroke-linejoin="round" stroke-miterlimit="10" stroke-width=".0625"/>
  <path d="m185.12 204.61c-27.389-0.1525-54.777-0.30625-78.195-0.24375s-42.861 0.34-57.723 0.47875-25.139 0.13875-35.416 0.13875" fill="none" stroke="#000" stroke-linejoin="round" stroke-miterlimit="10" stroke-width=".0625"/>
  <path d="m273.78 118.32c-20.555 1.3888-41.111 2.7775-61.944 4.305s-41.945 3.195-58.195 4.7225-27.639 2.9175-35.695 3.75c-8.055 0.83375-12.778 1.1112-15.971 0.4175-3.195-0.695-4.8613-2.3612-6.3888-3.75s-2.9175-2.5-4.3062-3.6112c9.445-1.6675 18.889-3.3338 31.111-4.445s27.222-1.6662 42.916-2.2225c15.695-0.555 32.084-1.1112 45.556-1.9438s24.028-1.945 30.972-1.945c6.9438 0 10.278 1.1112 15 2.0838s10.832 1.805 16.944 2.6388" fill="#c6cfd8"/>
  <path d="m1215.1 257.49c-0.1675 4.3338-0.3338 8.6675-1.1675 14.334s-2.3325 12.666-3.5 17.5-2 7.5-2.8325 10.166c0.1662-5.1662 0.3325-10.332 0.1662-16s-0.6662-11.832-0.8337-16.666 0-8.3338 0.4175-10.25 1.0825-2.25 1.75-2.0838 1.3325 0.83375 2.3325 1.4175 2.3337 1.0825 3.6675 1.5825" fill="#2e2d35"/>
  <path d="m1080.9 142.8c4.375 4.5838 8.75 9.1675 14.739 14.375s13.594 11.042 19.688 15.574 10.678 7.76 14.896 10.676 8.0725 5.5212 11.928 8.125" fill="none" stroke="#000" stroke-linejoin="round" stroke-miterlimit="10" stroke-width="2.5"/>
  <path d="m1207.7 247.49c-13.125 0-26.25 0-40.521-0.2075s-29.688-0.625-38.646-1.0425-11.458-0.8325-13.958-1.25" fill="none" stroke="#323535" stroke-linejoin="round" stroke-miterlimit="10" stroke-width=".0625"/>
  <path d="m1226.1 315.24c-3.3338-0.3125-6.6663-0.625-10.781-1.25s-9.01-1.5625-21.51-3.1775c-12.5-1.6138-32.605-3.9062-53.562-6.2388s-42.771-4.7088-64.584-7.0838c-0.5838 5.125-1.1663 10.25-2.135 15.448s-2.3238 10.469-3.4175 14.406-1.9263 6.5425-2.76 9.1462c4.2712-0.3125 8.5412-0.625 14.115-1.3538s12.448-1.875 19.635-2.8125 14.688-1.6675 21.562-2.1875 13.125-0.83375 20.572-1.4588 16.094-1.5625 23.438-2.1875 13.386-0.9375 18.646-1.3025 9.74-0.78125 14.192-0.98875 8.88-0.20875 12.526-0.78125 6.51-1.7188 8.5162-2.865c2.005-1.1462 3.15-2.2912 3.9313-3.1775s1.1987-1.51 1.615-2.135z" fill="#605e63"/>
  <path d="m1223.4 315.06c-2.8462 0.20875-9.7912-0.3475-21.458-1.6662s-28.056-3.4038-43.75-5.2088c-15.695-1.8062-30.695-3.3338-42.431-4.305s-20.208-1.39-24.722-2.015c-4.5138-0.625-5.0688-1.4575-4.86-2.36s1.18-1.8762 3.3325-2.5012 5.4862-0.9025 15.625-0.69375 27.084 0.9025 42.361 1.805 28.889 2.0138 37.222 2.9862 11.389 1.8062 15.278 2.9862 8.6113 2.7088 12.709 4.2362 7.5687 3.055 9.93 4.305 3.6112 2.2225 0.7637 2.4312z" fill="#fff" stroke="#6e6e6e" stroke-linejoin="round" stroke-miterlimit="10" stroke-width=".0625"/>
  <path d="m11.316 290.58c-0.3125 1.145-0.17375 3.5062-0.035 5.2075s0.2775 2.7438 0.86875 3.4725 1.6312 1.1462 5.7975 2.0838 11.459 2.395 23.89 4.5488 30 5 40.971 6.7012 15.348 2.2562 21.668 2.9162 14.582 1.4238 20.208 1.8062 8.6112 0.38125 10.139 0.3125 1.5975-0.20875 1.8412-0.55625 0.65875-0.9025 1.3538-2.2912 1.6662-3.6112 2.0488-6.0075 0.17375-4.965-0.66-7.1175-2.2912-3.8888-3.5762-5.1388-2.3962-2.0138-3.4025-2.4662-1.91-0.59-18.611-1.5275-49.201-2.6738-65.973-3.4725-17.812-0.65875-18.646-0.41625-1.4575 0.59-2.1175 0.83375-1.3538 0.38125-2.7775 0.52-3.5762 0.27875-5.5562 0.20875-3.7838-0.3475-5.0688-0.52125-2.0488-0.2425-2.3612 0.90375" fill="url(#a)"/>
  <path d="m11.316 290.58c-0.3125 1.145-0.17375 3.5062-0.035 5.2075s0.2775 2.7438 0.86875 3.4725 1.6312 1.1462 5.7975 2.0838 11.459 2.395 23.89 4.5488 30 5 40.971 6.7012 15.348 2.2562 21.668 2.9162 14.582 1.4238 20.208 1.8062 8.6112 0.38125 10.139 0.3125 1.5975-0.20875 1.8412-0.55625 0.65875-0.9025 1.3538-2.2912 1.6662-3.6112 2.0488-6.0075 0.17375-4.965-0.66-7.1175-2.2912-3.8888-3.5762-5.1388-2.3962-2.0138-3.4025-2.4662-1.91-0.59-18.611-1.5275-49.201-2.6738-65.973-3.4725-17.812-0.65875-18.646-0.41625-1.4575 0.59-2.1175 0.83375-1.3538 0.38125-2.7775 0.52-3.5762 0.27875-5.5562 0.20875-3.7838-0.3475-5.0688-0.52125-2.0488-0.2425-2.3612 0.90375z" fill="none" stroke="#000" stroke-linejoin="round" stroke-miterlimit="10" stroke-width=".0625"/>
  <path d="m509.93 151.76c-2.3962-0.72875-6.6675-1.875-12.188-2.76-5.5212-0.88625-12.292-1.5112-17.709-1.875s-9.4788-0.46875-12.5 0.0513-5 1.6675-6.1462 3.0738-1.4575 3.0725-1.4575 4.635 0.3125 3.0212 0.885 4.4275 1.4062 2.76 2.4475 4.01 2.2925 2.3962 3.9588 3.2288 3.75 1.355 7.135 1.7712c3.3862 0.41625 8.0738 0.72875 13.699 0.78125s12.188-0.15625 16.562-0.5725 6.5625-1.0425 8.385-1.7712 3.2812-1.5625 4.2712-2.5525 1.51-2.135 1.51-3.3325-0.52125-2.4488-1.3025-3.5425-1.8225-2.0312-2.5512-2.7075-1.1462-1.0938-1.615-1.4588-0.99-0.6775-3.385-1.4062z" fill="#f3f4f9" stroke="#4d5050" stroke-linejoin="round" stroke-miterlimit="10" stroke-width=".05"/>
  <path d="m511.8 158.74c-5.625-0.625-11.25-1.25-16.511-1.51s-10.156-0.15625-14.166 0.0525-7.135 0.52-10.26 0.8325c1.145 1.355 2.2912 2.7088 3.4375 3.75s2.2912 1.7712 4.2188 2.3962 4.635 1.1462 7.8638 1.4062 6.98 0.26 10.625 0.0525c3.6462-0.20875 7.1875-0.625 9.5838-0.99s3.6462-0.6775 4.4275-1.4062 1.0938-1.875 1.145-2.7088-0.15625-1.3538-0.36375-1.875" fill="#4d4d55"/>
 </g>
</svg>
